<svg width="218" height="28" fill="none" xmlns="http://www.w3.org/2000/svg"><path d="M69.62 0h-5.005v5.071h5.005V0zm0 15.391h-5.005v5.071h5.005v-5.07zm0-7.794h-5.005v5.071h5.005V7.597z" fill="#007688"/><path fill-rule="evenodd" clip-rule="evenodd" d="M0 0h4.031v20.423H0V0zm46.446 0h14.119v18.39l-2.026 2.053H44.42V2.052L46.447 0zm2.006 5.11v11.249h7.068l1.012-1.026V4.085h-7.068L48.452 5.11zM28.277 0h12.091v4.085h-8.061v4.084h6.056v4.085h-6.055v8.169h-4.032V0zM8.081 0h4.79l7.323 14.839V0h4.03v20.423h-4.79l-7.322-14.8v14.82h-4.03V0z" fill="#00ADBA"/><path fill-rule="evenodd" clip-rule="evenodd" d="M73.71 0h4.03v16.338h8.064v4.085H73.71V0zm139.318 6.137V4.085h-8.062v2.703l12.112 4.953v8.682h-16.124v-6.097h4.031v2.052h8.062v-2.723l-12.113-4.953V0h16.125v6.137h-4.031zM182.746 0h12.112l2.026 2.052V8.19h-4.031V4.085h-8.063v12.253h8.063v-4.065h4.031v6.137l-2.026 2.052H180.72V2.052L182.746 0zm-10.108 0h4.032v20.423h-4.032V0zm-12.112 0h10.087v4.085h-6.056v16.338h-4.031V4.085h-6.057V0h6.057zm-12.113 6.137V4.085h-8.063v2.703l12.113 4.953v8.682h-16.124v-6.097h4.031v2.052h8.062v-2.723l-12.113-4.953V0h16.125v6.137h-4.031zM128.218 0h4.031v20.423h-4.031V0zm-18.17 0h14.119v4.085h-12.093v12.253h8.062v-4.065h-4.031V8.19h8.062v10.22l-2.025 2.052h-14.119V2.052L110.048 0zM89.854 0h14.138v18.39l-2.025 2.053H87.829V2.052L89.854 0zm2.025 5.11v11.249h7.069l1.013-1.026V4.085h-7.069L91.879 5.11zM0 27.921v-3.966h1.11c.331 0 .604.079.798.257a.848.848 0 01.293.65c0 .218-.059.415-.176.593a1.124 1.124 0 01-.487.355v.02c.273.039.468.138.643.296a.969.969 0 01.234.67c0 .336-.117.612-.35.83-.234.216-.546.315-.916.315H0v-.02zm.467-3.532v1.283h.468c.253 0 .448-.06.584-.178a.658.658 0 00.214-.513c0-.375-.253-.572-.76-.572H.468v-.02zm0 1.677v1.421h.624c.272 0 .486-.06.623-.197.156-.138.214-.316.214-.533 0-.474-.312-.71-.935-.71H.467v.02zm10.867.257c0 1.105-.487 1.677-1.48 1.677-.954 0-1.422-.533-1.422-1.598v-2.427H8.9v2.387c0 .81.33 1.224 1.012 1.224.662 0 .974-.395.974-1.184v-2.427h.467v2.348h-.019zm6.056 1.44v-.552c.059.059.137.098.215.158.078.04.175.079.272.118a1.528 1.528 0 00.565.099c.273 0 .487-.06.623-.158a.538.538 0 00.214-.454.458.458 0 00-.078-.276.679.679 0 00-.194-.217c-.078-.06-.176-.119-.292-.198a6.7 6.7 0 01-.37-.197c-.137-.079-.273-.138-.39-.217-.117-.079-.214-.158-.311-.237a1.148 1.148 0 01-.215-.296.81.81 0 01-.077-.375c0-.177.038-.335.116-.473.078-.138.176-.237.312-.336.136-.079.272-.158.428-.197a2.1 2.1 0 01.507-.06c.39 0 .662.04.837.139v.513c-.234-.158-.526-.237-.896-.237-.097 0-.194.02-.292.04-.097.02-.195.059-.273.098-.077.04-.136.119-.194.178a.421.421 0 00-.078.276c0 .099.02.197.058.257.04.079.098.138.156.197.078.06.156.118.273.177.097.06.233.119.37.198.136.079.272.138.39.217.116.079.233.158.33.256.098.1.175.198.234.316a.84.84 0 01.078.395.971.971 0 01-.117.493 1.016 1.016 0 01-.312.335 1.52 1.52 0 01-.448.178c-.175.04-.35.06-.525.06-.059 0-.137 0-.234-.02s-.175-.02-.273-.04a1.416 1.416 0 01-.272-.079c-.02-.02-.078-.04-.137-.079zm8.88.158h-.467v-3.966h.468v3.966zm9.446 0h-.565l-2.006-3.157a.616.616 0 01-.117-.257h-.02c.02.08.02.257.02.553v2.861h-.467v-3.966h.603l1.967 3.118c.078.138.137.217.156.256h.02c-.02-.118-.02-.316-.02-.592v-2.782h.468v3.966h-.04zm8.354 0h-2.064v-3.966h1.986v.414h-1.538v1.322h1.421v.415h-1.421v1.381h1.616v.434zm5.842-.158v-.552c.059.059.137.098.215.158.077.04.175.079.272.118a1.508 1.508 0 00.565.099c.273 0 .487-.06.623-.158a.538.538 0 00.214-.454.458.458 0 00-.078-.276.68.68 0 00-.194-.217c-.078-.06-.176-.119-.293-.198-.116-.059-.233-.118-.37-.197-.136-.079-.272-.138-.389-.217-.117-.079-.214-.158-.312-.237a1.148 1.148 0 01-.214-.296.81.81 0 01-.078-.375c0-.177.04-.335.117-.473.078-.138.175-.237.312-.336.136-.079.272-.158.428-.197a2.1 2.1 0 01.507-.06c.389 0 .662.04.837.139v.513c-.234-.158-.526-.237-.896-.237a1.465 1.465 0 00-.565.138c-.078.04-.136.119-.194.178a.422.422 0 00-.078.276.5.5 0 00.058.257.773.773 0 00.156.197c.078.06.156.118.273.177.097.06.233.119.37.198.136.079.272.138.39.217.116.079.233.158.33.256.098.1.175.198.234.316a.84.84 0 01.078.395.971.971 0 01-.117.493 1.016 1.016 0 01-.312.335 1.52 1.52 0 01-.448.178c-.175.04-.35.06-.525.06-.059 0-.137 0-.234-.02-.098-.02-.175-.02-.273-.04a1.417 1.417 0 01-.272-.079c-.02-.02-.078-.04-.137-.079zm8.238 0v-.552c.058.059.136.098.214.158.078.04.175.079.273.118a1.49 1.49 0 00.565.099c.272 0 .486-.06.623-.158a.538.538 0 00.214-.454.457.457 0 00-.078-.276.679.679 0 00-.195-.217c-.078-.06-.175-.119-.292-.198a6.7 6.7 0 01-.37-.197c-.136-.079-.273-.138-.39-.217a4.424 4.424 0 01-.311-.237 1.148 1.148 0 01-.214-.296.81.81 0 01-.078-.375c0-.177.039-.335.117-.473.078-.138.175-.237.311-.336.137-.079.273-.158.429-.197a2.1 2.1 0 01.506-.06c.39 0 .662.04.838.139v.513c-.234-.158-.526-.237-.896-.237a1.455 1.455 0 00-.565.138c-.078.04-.136.119-.195.178a.422.422 0 00-.078.276.5.5 0 00.059.257.773.773 0 00.155.197c.078.06.156.118.273.177.098.06.234.119.37.198.136.079.273.138.39.217.116.079.233.158.33.256.098.1.176.198.234.316a.84.84 0 01.078.395.971.971 0 01-.117.493 1.014 1.014 0 01-.311.335 1.52 1.52 0 01-.448.178c-.175.04-.35.06-.526.06-.058 0-.136 0-.234-.02-.097-.02-.175-.02-.272-.04a1.413 1.413 0 01-.273-.079c-.02-.02-.078-.04-.136-.079zm13.456-1.341v1.5h-.467v-3.967h1.071c.41 0 .74.099.974.316.234.197.35.493.35.868s-.136.69-.389.927c-.253.237-.604.356-1.032.356h-.507zm0-2.033v1.618h.487c.312 0 .565-.079.72-.217.176-.138.254-.355.254-.612 0-.532-.311-.789-.915-.789h-.546zm10.75 3.532h-.545l-.662-1.105c-.059-.098-.117-.197-.175-.256a.752.752 0 00-.37-.277.72.72 0 00-.234-.04H80v1.678h-.468v-3.966h1.169c.175 0 .331.02.467.06.137.039.273.117.37.197a.892.892 0 01.254.335 1.161 1.161 0 01.039.829 1.03 1.03 0 01-.448.553 1.967 1.967 0 01-.351.157v.02c.058.04.117.059.175.098.04.04.098.08.137.139.038.059.078.118.136.177.039.06.097.138.136.237l.74 1.164zM80.02 24.39v1.44h.623c.117 0 .215-.02.312-.059a.686.686 0 00.253-.157.538.538 0 00.175-.237.827.827 0 00.059-.316c0-.217-.059-.375-.195-.493-.136-.119-.33-.178-.584-.178h-.643zm9.66 3.591c-.546 0-.994-.177-1.325-.552-.33-.375-.506-.849-.506-1.44 0-.632.175-1.145.506-1.52s.799-.572 1.383-.572c.545 0 .974.177 1.305.552.33.375.487.849.487 1.44 0 .652-.176 1.165-.507 1.54-.311.375-.779.552-1.344.552zm.038-3.67c-.409 0-.74.158-.993.454-.253.296-.39.69-.39 1.184 0 .493.118.888.37 1.184.254.296.585.454.975.454.428 0 .759-.138 1.012-.434.253-.277.37-.691.37-1.184 0-.533-.117-.928-.35-1.204-.234-.316-.585-.454-.993-.454zm10.536 3.453c-.292.158-.643.237-1.071.237-.565 0-.993-.177-1.344-.552-.33-.356-.506-.849-.506-1.421 0-.632.195-1.145.565-1.54.37-.394.856-.591 1.44-.591.37 0 .682.059.916.158v.493a1.832 1.832 0 00-.935-.237c-.448 0-.818.158-1.09.454-.273.296-.429.71-.429 1.223 0 .474.137.869.39 1.145.253.296.603.434 1.032.434.39 0 .74-.079 1.013-.257v.454h.019zm8.121.158h-2.065v-3.966h1.987v.414h-1.519v1.322h1.421v.415h-1.421v1.381h1.616v.434h-.019zm5.842-.158v-.552c.058.059.136.098.214.158.078.04.175.079.273.118a1.508 1.508 0 00.565.099c.272 0 .486-.06.623-.158a.538.538 0 00.214-.454.46.46 0 00-.078-.276.68.68 0 00-.195-.217c-.078-.06-.175-.119-.292-.198a7.256 7.256 0 01-.37-.197c-.136-.079-.272-.138-.389-.217a4.256 4.256 0 01-.312-.237 1.136 1.136 0 01-.214-.296.803.803 0 01-.078-.375c0-.177.039-.335.117-.473.078-.138.175-.237.311-.336.137-.079.273-.158.429-.197a2.1 2.1 0 01.506-.06c.39 0 .662.04.838.139v.513c-.234-.158-.526-.237-.896-.237a1.455 1.455 0 00-.565.138c-.078.04-.136.119-.195.178a.424.424 0 00-.078.276c0 .099.02.197.059.257a.76.76 0 00.156.197c.078.06.155.118.272.177.098.06.234.119.37.198.137.079.273.138.39.217.117.079.233.158.331.256a1.2 1.2 0 01.233.316.834.834 0 01.078.395.98.98 0 01-.116.493 1.021 1.021 0 01-.312.335 1.52 1.52 0 01-.448.178c-.175.04-.35.06-.526.06-.058 0-.136 0-.233-.02-.098-.02-.176-.02-.273-.04a1.44 1.44 0 01-.273-.079c-.019-.02-.078-.04-.136-.079zm8.238 0v-.552c.058.059.136.098.214.158.078.04.175.079.272.118a1.528 1.528 0 00.565.099c.273 0 .487-.06.623-.158a.536.536 0 00.215-.454.46.46 0 00-.078-.276.68.68 0 00-.195-.217c-.078-.06-.175-.119-.292-.198a6.7 6.7 0 01-.37-.197c-.137-.079-.273-.138-.39-.217-.117-.079-.214-.158-.311-.237a1.161 1.161 0 01-.215-.296.815.815 0 01-.077-.375c0-.177.039-.335.116-.473.078-.138.176-.237.312-.336a1.68 1.68 0 01.428-.197c.156-.04.332-.06.507-.06.389 0 .662.04.837.139v.513c-.234-.158-.526-.237-.896-.237-.097 0-.194.02-.292.04a1.15 1.15 0 00-.272.098c-.078.04-.137.119-.195.178a.419.419 0 00-.078.276c0 .099.019.197.058.257.039.079.098.138.156.197.078.06.156.118.273.177.097.06.234.119.37.198.136.079.272.138.389.217.117.079.234.158.331.256.098.1.176.198.234.316a.846.846 0 01.078.395.97.97 0 01-.117.493 1.018 1.018 0 01-.311.335 1.531 1.531 0 01-.448.178c-.176.04-.351.06-.526.06-.059 0-.137 0-.234-.02s-.175-.02-.273-.04a1.41 1.41 0 01-.272-.079c-.02-.02-.078-.04-.136-.079zm16.027.158h-.507l-.409-1.105h-1.655l-.389 1.105h-.507l1.5-3.966h.467l1.5 3.966zm-1.071-1.52l-.623-1.696a1.699 1.699 0 01-.059-.257h-.019c-.02.119-.039.198-.059.257l-.604 1.697h1.364zm9.678-.078c0 1.105-.486 1.677-1.48 1.677-.954 0-1.421-.533-1.421-1.598v-2.427h.467v2.387c0 .81.331 1.224 1.013 1.224.662 0 .973-.395.973-1.184v-2.427h.468v2.348h-.02zm8.55-1.934h-1.13v3.552h-.467V24.39h-1.13v-.414h2.707v.414h.02zm7.205 3.591c-.545 0-.993-.177-1.324-.552-.331-.375-.507-.849-.507-1.44 0-.632.176-1.145.507-1.52s.798-.572 1.382-.572c.546 0 .974.177 1.305.552.331.375.487.849.487 1.44 0 .652-.175 1.165-.506 1.54s-.779.552-1.344.552zm.019-3.67c-.409 0-.74.158-.993.454-.253.296-.389.69-.389 1.184 0 .493.117.888.37 1.184.253.296.584.454.973.454.429 0 .76-.138 1.013-.434.253-.277.37-.691.37-1.184 0-.533-.117-.928-.35-1.204-.234-.316-.565-.454-.994-.454zm11.86 3.611h-.448v-2.664c0-.217.02-.473.039-.77h-.019c-.039.178-.078.316-.117.376l-1.344 3.038h-.233l-1.325-3.019a1.854 1.854 0 01-.117-.414h-.019c.019.158.019.414.019.77v2.644h-.448v-3.966h.604l1.208 2.762c.097.217.155.375.175.474h.019c.078-.218.137-.375.195-.494l1.227-2.742h.565v4.005h.019zm9.328 0h-.506l-.409-1.105h-1.655l-.39 1.105h-.506l1.499-3.966h.468l1.499 3.966zm-1.071-1.52l-.623-1.696a1.723 1.723 0 01-.058-.257h-.02a1.723 1.723 0 01-.058.257l-.604 1.697h1.363zm8.822-2.012h-1.129v3.552h-.468V24.39h-1.11v-.414h2.707v.414zm6.329 3.532h-.467v-3.966h.467v3.966zm7.887.06c-.545 0-.993-.178-1.324-.553-.331-.375-.506-.849-.506-1.44 0-.632.175-1.145.506-1.52s.798-.572 1.383-.572c.545 0 .973.177 1.304.552.331.375.487.849.487 1.44 0 .652-.175 1.165-.506 1.54s-.779.552-1.344.552zm.02-3.67c-.409 0-.74.157-.994.453-.253.296-.389.69-.389 1.184 0 .493.117.888.37 1.184.253.296.584.454.974.454.428 0 .759-.138 1.012-.434.254-.277.37-.691.37-1.184 0-.533-.116-.928-.35-1.204-.234-.316-.565-.454-.993-.454zm11.022 3.61h-.565l-2.006-3.157a.614.614 0 01-.116-.257h-.02c.02.08.02.257.02.553v2.861h-.468v-3.966h.604l1.967 3.118c.078.138.136.217.156.256h.019c-.019-.118-.019-.316-.019-.592v-2.782h.467v3.966h-.039z" fill="#000"/></svg>